<mxfile host="Electron" agent="Mozilla/5.0 (Windows NT 10.0; Win64; x64) AppleWebKit/537.36 (KHTML, like Gecko) draw.io/24.7.5 Chrome/126.0.6478.183 Electron/31.3.0 Safari/537.36" version="24.7.5">
  <diagram name="Page-1" id="qVhUc6B-H15RXZRhVvyg">
    <mxGraphModel dx="2350" dy="1024" grid="1" gridSize="10" guides="1" tooltips="1" connect="1" arrows="1" fold="1" page="1" pageScale="1" pageWidth="850" pageHeight="1100" math="0" shadow="0">
      <root>
        <mxCell id="0" />
        <mxCell id="1" parent="0" />
        <mxCell id="1l7d2Tyfg6K8RsBoLbT4-10" value="BLOCK_ENABLE" style="edgeStyle=orthogonalEdgeStyle;rounded=0;orthogonalLoop=1;jettySize=auto;html=1;exitX=0.75;exitY=1;exitDx=0;exitDy=0;entryX=0.5;entryY=0;entryDx=0;entryDy=0;" edge="1" parent="1" source="1l7d2Tyfg6K8RsBoLbT4-1" target="1l7d2Tyfg6K8RsBoLbT4-2">
          <mxGeometry relative="1" as="geometry">
            <Array as="points">
              <mxPoint x="440" y="400" />
            </Array>
          </mxGeometry>
        </mxCell>
        <mxCell id="1l7d2Tyfg6K8RsBoLbT4-32" value="SEQ_DONE" style="edgeStyle=orthogonalEdgeStyle;rounded=0;orthogonalLoop=1;jettySize=auto;html=1;" edge="1" parent="1" source="1l7d2Tyfg6K8RsBoLbT4-30" target="1l7d2Tyfg6K8RsBoLbT4-1">
          <mxGeometry relative="1" as="geometry">
            <Array as="points">
              <mxPoint x="370" y="180" />
              <mxPoint x="370" y="180" />
            </Array>
          </mxGeometry>
        </mxCell>
        <mxCell id="1l7d2Tyfg6K8RsBoLbT4-1" value="SEQUENCE_GEN" style="rounded=0;whiteSpace=wrap;html=1;" vertex="1" parent="1">
          <mxGeometry x="360" y="230" width="160" height="170" as="geometry" />
        </mxCell>
        <mxCell id="1l7d2Tyfg6K8RsBoLbT4-2" value="LFSR" style="rounded=0;whiteSpace=wrap;html=1;" vertex="1" parent="1">
          <mxGeometry x="360" y="480" width="160" height="70" as="geometry" />
        </mxCell>
        <mxCell id="1l7d2Tyfg6K8RsBoLbT4-29" value="[7:0]PRBS" style="edgeStyle=orthogonalEdgeStyle;rounded=0;orthogonalLoop=1;jettySize=auto;html=1;exitX=1;exitY=0.5;exitDx=0;exitDy=-5;exitPerimeter=0;entryX=0.995;entryY=0.471;entryDx=0;entryDy=0;entryPerimeter=0;" edge="1" parent="1" source="1l7d2Tyfg6K8RsBoLbT4-3" target="1l7d2Tyfg6K8RsBoLbT4-37">
          <mxGeometry relative="1" as="geometry">
            <mxPoint x="-30" y="344.6153846153845" as="targetPoint" />
          </mxGeometry>
        </mxCell>
        <mxCell id="1l7d2Tyfg6K8RsBoLbT4-3" value="Mux" style="shadow=0;dashed=0;align=center;html=1;strokeWidth=1;shape=mxgraph.electrical.abstract.mux2;whiteSpace=wrap;flipV=1;flipH=1;" vertex="1" parent="1">
          <mxGeometry x="100" y="280" width="80" height="120" as="geometry" />
        </mxCell>
        <mxCell id="1l7d2Tyfg6K8RsBoLbT4-4" value="[7:0]OUT_EST" style="edgeStyle=orthogonalEdgeStyle;rounded=0;orthogonalLoop=1;jettySize=auto;html=1;exitX=0;exitY=0.5;exitDx=0;exitDy=0;" edge="1" parent="1" source="1l7d2Tyfg6K8RsBoLbT4-30">
          <mxGeometry relative="1" as="geometry">
            <mxPoint x="180" y="319" as="targetPoint" />
            <Array as="points">
              <mxPoint x="270" y="120" />
              <mxPoint x="270" y="319" />
            </Array>
          </mxGeometry>
        </mxCell>
        <mxCell id="1l7d2Tyfg6K8RsBoLbT4-5" value="[7:0]OUT_RAND" style="edgeStyle=orthogonalEdgeStyle;rounded=0;orthogonalLoop=1;jettySize=auto;html=1;entryX=0;entryY=0.21666666666666667;entryDx=0;entryDy=3;entryPerimeter=0;" edge="1" parent="1" source="1l7d2Tyfg6K8RsBoLbT4-2" target="1l7d2Tyfg6K8RsBoLbT4-3">
          <mxGeometry relative="1" as="geometry">
            <Array as="points">
              <mxPoint x="250" y="515" />
              <mxPoint x="250" y="371" />
              <mxPoint x="180" y="371" />
            </Array>
          </mxGeometry>
        </mxCell>
        <mxCell id="1l7d2Tyfg6K8RsBoLbT4-11" value="[31:0] IN" style="endArrow=classic;html=1;rounded=0;entryX=1;entryY=0.401;entryDx=0;entryDy=0;entryPerimeter=0;" edge="1" parent="1">
          <mxGeometry width="50" height="50" relative="1" as="geometry">
            <mxPoint x="790" y="330" as="sourcePoint" />
            <mxPoint x="520" y="330.16999999999996" as="targetPoint" />
          </mxGeometry>
        </mxCell>
        <mxCell id="1l7d2Tyfg6K8RsBoLbT4-12" value="[7:0] N" style="endArrow=classic;html=1;rounded=0;" edge="1" parent="1">
          <mxGeometry width="50" height="50" relative="1" as="geometry">
            <mxPoint x="790" y="350" as="sourcePoint" />
            <mxPoint x="522" y="350" as="targetPoint" />
          </mxGeometry>
        </mxCell>
        <mxCell id="1l7d2Tyfg6K8RsBoLbT4-13" value="CLK" style="endArrow=classic;html=1;rounded=0;" edge="1" parent="1">
          <mxGeometry width="50" height="50" relative="1" as="geometry">
            <mxPoint x="790" y="270" as="sourcePoint" />
            <mxPoint x="520" y="270" as="targetPoint" />
          </mxGeometry>
        </mxCell>
        <mxCell id="1l7d2Tyfg6K8RsBoLbT4-14" value="RST" style="endArrow=classic;html=1;rounded=0;" edge="1" parent="1">
          <mxGeometry width="50" height="50" relative="1" as="geometry">
            <mxPoint x="790" y="250" as="sourcePoint" />
            <mxPoint x="520" y="250" as="targetPoint" />
          </mxGeometry>
        </mxCell>
        <mxCell id="1l7d2Tyfg6K8RsBoLbT4-16" value="DATA_VALID" style="endArrow=classic;html=1;rounded=0;" edge="1" parent="1">
          <mxGeometry width="50" height="50" relative="1" as="geometry">
            <mxPoint x="790" y="289" as="sourcePoint" />
            <mxPoint x="520" y="289" as="targetPoint" />
          </mxGeometry>
        </mxCell>
        <mxCell id="1l7d2Tyfg6K8RsBoLbT4-17" value="RAND_FLAG" style="edgeStyle=orthogonalEdgeStyle;rounded=0;orthogonalLoop=1;jettySize=auto;html=1;exitX=0;exitY=0.25;exitDx=0;exitDy=0;entryX=0.375;entryY=1;entryDx=10;entryDy=0;entryPerimeter=0;" edge="1" parent="1" source="1l7d2Tyfg6K8RsBoLbT4-1" target="1l7d2Tyfg6K8RsBoLbT4-3">
          <mxGeometry relative="1" as="geometry">
            <Array as="points">
              <mxPoint x="360" y="260" />
              <mxPoint x="140" y="260" />
            </Array>
          </mxGeometry>
        </mxCell>
        <mxCell id="1l7d2Tyfg6K8RsBoLbT4-18" value="CLK" style="endArrow=classic;html=1;rounded=0;" edge="1" parent="1">
          <mxGeometry width="50" height="50" relative="1" as="geometry">
            <mxPoint x="610" y="520" as="sourcePoint" />
            <mxPoint x="520" y="520" as="targetPoint" />
          </mxGeometry>
        </mxCell>
        <mxCell id="1l7d2Tyfg6K8RsBoLbT4-19" value="RST" style="endArrow=classic;html=1;rounded=0;" edge="1" parent="1">
          <mxGeometry width="50" height="50" relative="1" as="geometry">
            <mxPoint x="600" y="540" as="sourcePoint" />
            <mxPoint x="520" y="540" as="targetPoint" />
          </mxGeometry>
        </mxCell>
        <mxCell id="1l7d2Tyfg6K8RsBoLbT4-20" value="SEED/[15:0]IN" style="endArrow=classic;html=1;rounded=0;entryX=1;entryY=0.25;entryDx=0;entryDy=0;" edge="1" parent="1" target="1l7d2Tyfg6K8RsBoLbT4-2">
          <mxGeometry width="50" height="50" relative="1" as="geometry">
            <mxPoint x="560" y="330" as="sourcePoint" />
            <mxPoint x="560" y="500" as="targetPoint" />
            <Array as="points">
              <mxPoint x="560" y="498" />
            </Array>
          </mxGeometry>
        </mxCell>
        <mxCell id="1l7d2Tyfg6K8RsBoLbT4-23" value="" style="endArrow=none;html=1;rounded=0;" edge="1" parent="1">
          <mxGeometry width="50" height="50" relative="1" as="geometry">
            <mxPoint x="90" y="600" as="sourcePoint" />
            <mxPoint x="90" y="40" as="targetPoint" />
          </mxGeometry>
        </mxCell>
        <mxCell id="1l7d2Tyfg6K8RsBoLbT4-24" value="" style="endArrow=none;html=1;rounded=0;" edge="1" parent="1">
          <mxGeometry width="50" height="50" relative="1" as="geometry">
            <mxPoint x="720" y="600" as="sourcePoint" />
            <mxPoint x="720" y="40" as="targetPoint" />
          </mxGeometry>
        </mxCell>
        <mxCell id="1l7d2Tyfg6K8RsBoLbT4-25" value="" style="endArrow=none;html=1;rounded=0;" edge="1" parent="1">
          <mxGeometry width="50" height="50" relative="1" as="geometry">
            <mxPoint x="720" y="40" as="sourcePoint" />
            <mxPoint x="90" y="40" as="targetPoint" />
          </mxGeometry>
        </mxCell>
        <mxCell id="1l7d2Tyfg6K8RsBoLbT4-26" value="" style="endArrow=none;html=1;rounded=0;" edge="1" parent="1">
          <mxGeometry width="50" height="50" relative="1" as="geometry">
            <mxPoint x="720" y="600" as="sourcePoint" />
            <mxPoint x="90" y="600" as="targetPoint" />
          </mxGeometry>
        </mxCell>
        <mxCell id="1l7d2Tyfg6K8RsBoLbT4-27" value="" style="endArrow=none;html=1;rounded=0;" edge="1" parent="1">
          <mxGeometry width="50" height="50" relative="1" as="geometry">
            <mxPoint x="610" y="520" as="sourcePoint" />
            <mxPoint x="610" y="270" as="targetPoint" />
          </mxGeometry>
        </mxCell>
        <mxCell id="1l7d2Tyfg6K8RsBoLbT4-28" value="" style="endArrow=none;html=1;rounded=0;" edge="1" parent="1">
          <mxGeometry width="50" height="50" relative="1" as="geometry">
            <mxPoint x="600" y="540" as="sourcePoint" />
            <mxPoint x="600" y="250" as="targetPoint" />
          </mxGeometry>
        </mxCell>
        <mxCell id="1l7d2Tyfg6K8RsBoLbT4-30" value="SEQUENCER" style="rounded=0;whiteSpace=wrap;html=1;" vertex="1" parent="1">
          <mxGeometry x="360" y="80" width="160" height="80" as="geometry" />
        </mxCell>
        <mxCell id="1l7d2Tyfg6K8RsBoLbT4-31" value="SEQ_EN" style="endArrow=classic;html=1;rounded=0;exitX=0.5;exitY=0;exitDx=0;exitDy=0;entryX=0.5;entryY=1;entryDx=0;entryDy=0;" edge="1" parent="1">
          <mxGeometry width="50" height="50" relative="1" as="geometry">
            <mxPoint x="460" y="230" as="sourcePoint" />
            <mxPoint x="460" y="160" as="targetPoint" />
          </mxGeometry>
        </mxCell>
        <mxCell id="1l7d2Tyfg6K8RsBoLbT4-33" value="RST" style="endArrow=classic;html=1;rounded=0;entryX=1;entryY=0.25;entryDx=0;entryDy=0;" edge="1" parent="1" target="1l7d2Tyfg6K8RsBoLbT4-30">
          <mxGeometry width="50" height="50" relative="1" as="geometry">
            <mxPoint x="620" y="250" as="sourcePoint" />
            <mxPoint x="540" y="100" as="targetPoint" />
            <Array as="points">
              <mxPoint x="620" y="100" />
            </Array>
          </mxGeometry>
        </mxCell>
        <mxCell id="1l7d2Tyfg6K8RsBoLbT4-34" value="CLK" style="endArrow=classic;html=1;rounded=0;entryX=1;entryY=0.5;entryDx=0;entryDy=0;" edge="1" parent="1" target="1l7d2Tyfg6K8RsBoLbT4-30">
          <mxGeometry width="50" height="50" relative="1" as="geometry">
            <mxPoint x="676" y="270" as="sourcePoint" />
            <mxPoint x="530" y="120" as="targetPoint" />
            <Array as="points">
              <mxPoint x="676" y="120" />
            </Array>
          </mxGeometry>
        </mxCell>
        <mxCell id="1l7d2Tyfg6K8RsBoLbT4-35" value="[31:0]IN" style="endArrow=classic;html=1;rounded=0;exitX=0.5;exitY=0;exitDx=0;exitDy=0;entryX=0.5;entryY=1;entryDx=0;entryDy=0;" edge="1" parent="1">
          <mxGeometry width="50" height="50" relative="1" as="geometry">
            <mxPoint x="510" y="230" as="sourcePoint" />
            <mxPoint x="510" y="160" as="targetPoint" />
          </mxGeometry>
        </mxCell>
        <mxCell id="1l7d2Tyfg6K8RsBoLbT4-36" value="[7:0]N" style="endArrow=classic;html=1;rounded=0;exitX=0.5;exitY=0;exitDx=0;exitDy=0;entryX=0.5;entryY=1;entryDx=0;entryDy=0;" edge="1" parent="1">
          <mxGeometry width="50" height="50" relative="1" as="geometry">
            <mxPoint x="420" y="230" as="sourcePoint" />
            <mxPoint x="420" y="160" as="targetPoint" />
          </mxGeometry>
        </mxCell>
        <mxCell id="1l7d2Tyfg6K8RsBoLbT4-37" value="RECEIVER" style="rounded=0;whiteSpace=wrap;html=1;" vertex="1" parent="1">
          <mxGeometry x="-270" y="260" width="220" height="180" as="geometry" />
        </mxCell>
        <mxCell id="1l7d2Tyfg6K8RsBoLbT4-39" value="receive_flag" style="endArrow=classic;html=1;rounded=0;exitX=0;exitY=0.5;exitDx=0;exitDy=0;" edge="1" parent="1" source="1l7d2Tyfg6K8RsBoLbT4-37">
          <mxGeometry width="50" height="50" relative="1" as="geometry">
            <mxPoint x="-190" y="400" as="sourcePoint" />
            <mxPoint x="-440" y="350" as="targetPoint" />
          </mxGeometry>
        </mxCell>
      </root>
    </mxGraphModel>
  </diagram>
</mxfile>
